<?xml version="1.0" encoding="utf-8"?>
<!-- Generator: Adobe Illustrator 28.0.0, SVG Export Plug-In . SVG Version: 6.00 Build 0)  -->
<svg version="1.1" id="Layer_1" xmlns="http://www.w3.org/2000/svg" xmlns:xlink="http://www.w3.org/1999/xlink" x="0px" y="0px"
	 viewBox="0 0 100 100" style="enable-background:new 0 0 100 100;" xml:space="preserve">
<style type="text/css">
	.st0{fill:#808080;}
</style>
<rect x="65" y="10" class="st0" width="10" height="6.7"/>
<path class="st0" d="M36.7,30c0-7.4-6-13.3-13.3-13.3C23.3,24,29.3,30,36.7,30z"/>
<circle class="st0" cx="13.3" cy="46.7" r="3.3"/>
<circle class="st0" cx="20" cy="56.7" r="3.3"/>
<polygon class="st0" points="60,90 16.7,90 10,63.3 66.7,63.3 "/>
<path class="st0" d="M75,37.3V21.7H65v15.7c-8.6,2.2-15,10-15,19.3v1.7h23.1L65.2,90H90V56.7C90,47.3,83.6,39.5,75,37.3z"/>
<path class="st0" d="M45,56.7c0-9.9,5.8-18.5,14.2-22.5c-0.9-7-4-13.8-9.4-19.2c-6.9,6.9-10.1,16.1-9.7,25.1
	c-5.6-4.2-12.5-6.8-20.1-6.8c0,10,4.4,18.9,11.3,25H45V56.7z"/>
</svg>
